<svg xmlns="http://www.w3.org/2000/svg" width="225" height="225" viewBox="0 0 225 225">
<g>
<path d="M 0.00 0.00 L 225.00 0.00 L 225.00 225.00 L 0.00 225.00 ZM 99.50 179.58 C108.54,181.68 123.58,180.80 133.63,177.59 C154.23,171.00 171.56,153.27 178.17,132.00 C180.10,125.77 180.49,122.38 180.45,112.00 C180.40,101.00 180.06,98.54 177.63,91.51 C166.71,60.04 136.72,40.81 105.10,44.99 C88.07,47.24 75.89,53.12 64.52,64.58 C53.00,76.21 46.82,89.02 44.99,105.12 C42.71,125.05 49.48,144.92 63.50,159.49 C73.42,169.81 84.87,176.20 99.50,179.58 ZM 125.79 175.42 C116.63,177.30 108.73,177.33 100.37,175.51 C69.63,168.82 48.74,143.33 48.74,112.50 C48.74,94.81 54.70,80.29 66.99,68.00 C80.37,54.63 93.98,48.88 112.50,48.77 C141.49,48.59 165.61,66.28 174.17,94.00 C177.45,104.62 177.44,120.43 174.15,131.00 C167.01,153.97 148.79,170.70 125.79,175.42 ZM 77.00 93.00 L 77.00 149.10 L 82.75 148.80 L 88.50 148.50 L 88.77 124.79 L 89.04 101.08 L 96.77 100.79 L 104.50 100.50 L 105.12 93.00 ZM 137.00 101.08 L 137.00 149.10 L 142.75 148.80 L 148.50 148.50 L 148.77 120.75 L 149.03 93.00 L 120.88 93.00 L 121.50 100.50 L 129.25 100.79 ZM 80.50 83.81 C83.32,85.40 83.79,85.31 86.55,82.55 C89.41,79.69 89.58,78.27 87.44,75.22 C86.38,73.70 84.86,73.00 82.64,73.00 C78.73,73.00 76.99,74.53 77.02,77.95 C77.03,80.98 77.81,82.28 80.50,83.81 ZM 139.63 82.93 C142.98,85.56 143.56,85.53 146.55,82.55 C150.73,78.37 148.85,73.00 143.21,73.00 C137.07,73.00 134.85,79.16 139.63,82.93 Z" fill="rgb(1,156,229)"/>
<path d="M 99.50 179.58 C84.87,176.20 73.42,169.81 63.50,159.49 C49.48,144.92 42.71,125.05 44.99,105.12 C46.82,89.02 53.00,76.21 64.52,64.58 C75.89,53.12 88.07,47.24 105.10,44.99 C136.72,40.81 166.71,60.04 177.63,91.51 C180.06,98.54 180.40,101.00 180.45,112.00 C180.49,122.38 180.10,125.77 178.17,132.00 C171.56,153.27 154.23,171.00 133.63,177.59 C123.58,180.80 108.54,181.68 99.50,179.58 ZM 125.79 175.42 C148.79,170.70 167.01,153.97 174.15,131.00 C177.44,120.43 177.45,104.62 174.17,94.00 C165.61,66.28 141.49,48.59 112.50,48.77 C93.98,48.88 80.37,54.63 66.99,68.00 C54.70,80.29 48.74,94.81 48.74,112.50 C48.74,143.33 69.63,168.82 100.37,175.51 C108.73,177.33 116.63,177.30 125.79,175.42 ZM 77.00 121.05 L 77.00 93.00 L 91.06 93.00 L 105.12 93.00 L 104.81 96.75 L 104.50 100.50 L 96.77 100.79 L 89.04 101.08 L 88.77 124.79 L 88.50 148.50 L 82.75 148.80 L 77.00 149.10 L 77.00 121.05 ZM 137.00 125.09 L 137.00 101.08 L 129.25 100.79 L 121.50 100.50 L 121.19 96.75 L 120.88 93.00 L 134.96 93.00 L 149.03 93.00 L 148.77 120.75 L 148.50 148.50 L 142.75 148.80 L 137.00 149.10 L 137.00 125.09 ZM 80.50 83.81 C77.81,82.28 77.03,80.98 77.02,77.95 C76.99,74.53 78.73,73.00 82.64,73.00 C84.86,73.00 86.38,73.70 87.44,75.22 C89.58,78.27 89.41,79.69 86.55,82.55 C83.79,85.31 83.32,85.40 80.50,83.81 ZM 139.63 82.93 C134.85,79.16 137.07,73.00 143.21,73.00 C148.85,73.00 150.73,78.37 146.55,82.55 C143.56,85.53 142.98,85.56 139.63,82.93 Z" fill="rgb(237,244,251)"/>
</g>
</svg>